<svg xmlns="http://www.w3.org/2000/svg" xmlns:xlink="http://www.w3.org/1999/xlink" width="500" zoomAndPan="magnify" viewBox="0 0 375 374.999991" height="500" preserveAspectRatio="xMidYMid meet" version="1.0"><defs><g/><clipPath id="6fc141a4dd"><path d="M 67.746094 67.746094 L 307.253906 67.746094 L 307.253906 307.253906 L 67.746094 307.253906 Z M 67.746094 67.746094 " clip-rule="nonzero"/></clipPath><clipPath id="0f7d09bf7d"><path d="M 187.5 67.746094 C 121.363281 67.746094 67.746094 121.363281 67.746094 187.5 C 67.746094 253.636719 121.363281 307.253906 187.5 307.253906 C 253.636719 307.253906 307.253906 253.636719 307.253906 187.5 C 307.253906 121.363281 253.636719 67.746094 187.5 67.746094 Z M 187.5 67.746094 " clip-rule="nonzero"/></clipPath><clipPath id="06c98eb86f"><path d="M 99.289062 45 L 275.769531 45 L 275.769531 252 L 99.289062 252 Z M 99.289062 45 " clip-rule="nonzero"/></clipPath></defs><rect x="-37.5" width="450" fill="#ffffff" y="-37.499999" height="449.999989" fill-opacity="1"/><rect x="-37.5" width="450" fill="#ffffff" y="-37.499999" height="449.999989" fill-opacity="1"/><g clip-path="url(#6fc141a4dd)"><g clip-path="url(#0f7d09bf7d)"><path fill="#e7f4ff" d="M 67.746094 67.746094 L 307.253906 67.746094 L 307.253906 307.253906 L 67.746094 307.253906 Z M 67.746094 67.746094 " fill-opacity="1" fill-rule="nonzero"/></g></g><g clip-path="url(#06c98eb86f)"><path fill="#737373" d="M 186.425781 117.277344 C 181.082031 112.652344 174.867188 109.101562 168.273438 106.777344 C 168.703125 101.585938 168.347656 95.183594 165.789062 88.777344 C 165.136719 87.152344 163.386719 86.253906 161.683594 86.683594 C 161.683594 86.683594 156.941406 87.84375 151.226562 91.324219 C 151.152344 91.164062 151.074219 91 151 90.839844 C 149.082031 86.832031 146.324219 83.4375 142.585938 81.570312 C 141.234375 80.890625 139.605469 81.160156 138.535156 82.222656 C 138.535156 82.222656 125.292969 95.519531 122.078125 112.355469 C 109.230469 121.625 99.855469 138.671875 99.855469 165.394531 C 99.855469 215.277344 131.917969 235.652344 136.195312 238.148438 C 142.277344 244.019531 153.011719 248.125 165.410156 250.125 C 183.71875 253.078125 205.621094 251.585938 220.335938 245.695312 C 256.871094 231.085938 275.121094 195.691406 275.121094 165.609375 C 275.121094 140.304688 269.851562 132.582031 264.832031 110.003906 C 255.332031 67.246094 273.359375 56.195312 273.359375 56.195312 C 274.539062 55.519531 275.222656 54.21875 275.109375 52.867188 C 275 51.511719 274.113281 50.339844 272.835938 49.867188 C 272.835938 49.867188 259.5 44.902344 243.140625 45.292969 C 226.476562 45.6875 206.777344 51.578125 194.496094 73.328125 C 187.894531 85.015625 186.101562 100.457031 186.425781 117.277344 Z M 198.769531 191.683594 C 198.726562 198.121094 198.28125 204.164062 197.226562 209.640625 C 195.519531 218.492188 192.21875 225.910156 186.714844 231.335938 C 180.328125 237.625 170.828125 241.347656 156.867188 241.105469 C 159.898438 241.960938 163.148438 242.660156 166.527344 243.203125 C 183.589844 245.957031 204.015625 244.675781 217.734375 239.191406 C 251.304688 225.757812 268.109375 193.257812 268.109375 165.609375 C 268.109375 140.984375 262.875 133.492188 257.992188 111.523438 C 250.59375 78.238281 258.691406 61.859375 264.671875 54.757812 C 259.707031 53.527344 251.972656 52.097656 243.308594 52.300781 C 228.699219 52.648438 211.367188 57.707031 200.597656 76.773438 C 193.632812 89.113281 192.753906 106.007812 193.683594 124.121094 C 209.191406 138.085938 218.070312 137.8125 218.070312 137.8125 L 218.070312 137.820312 C 218.609375 137.660156 219.195312 137.632812 219.777344 137.757812 C 221.46875 138.128906 222.609375 139.660156 222.539062 141.332031 C 222.59375 142.859375 222.425781 147.808594 218.601562 153.566406 C 215.34375 158.464844 209.253906 164.179688 197.644531 168.488281 C 198.316406 176.285156 198.78125 183.855469 198.773438 190.957031 C 198.78125 191.066406 198.785156 191.171875 198.789062 191.28125 C 198.789062 191.417969 198.78125 191.550781 198.769531 191.683594 Z M 174.5625 175.351562 C 142.417969 187.136719 130.78125 210.269531 140.738281 232.238281 C 161.425781 236.277344 174.203125 233.816406 181.796875 226.339844 C 186.351562 221.851562 188.929688 215.636719 190.339844 208.316406 C 191.15625 204.078125 191.582031 199.476562 191.722656 194.617188 C 187.359375 194.089844 184.015625 192.558594 181.484375 190.539062 C 176.445312 186.519531 174.621094 180.402344 174.5625 175.351562 Z M 191.15625 163.269531 C 182.339844 164.324219 170.996094 163.875 156.421875 160.753906 C 136.066406 156.390625 119.191406 170.332031 117.851562 189.523438 C 117.128906 199.898438 120.890625 211.671875 130.691406 223.050781 C 127.152344 200.257812 142.554688 177.699219 177.679688 166.902344 C 177.835938 166.84375 177.992188 166.796875 178.152344 166.757812 C 180.652344 166 183.246094 165.304688 185.9375 164.671875 C 187.792969 164.234375 189.53125 163.765625 191.15625 163.269531 Z M 146.023438 97.273438 C 145.644531 96.109375 145.199219 94.960938 144.671875 93.863281 C 143.851562 92.144531 142.847656 90.542969 141.546875 89.320312 C 137.960938 93.496094 130.515625 103.34375 128.753906 114.921875 C 128.601562 115.894531 128.054688 116.753906 127.238281 117.304688 C 115.261719 125.347656 106.863281 140.894531 106.863281 165.394531 C 106.863281 175.816406 108.378906 184.839844 110.757812 192.582031 C 110.742188 191.386719 110.777344 190.203125 110.859375 189.035156 C 112.492188 165.621094 133.054688 148.578125 157.890625 153.898438 C 196.046875 162.074219 209.324219 150.855469 213.660156 144.414062 C 208.441406 143.28125 200.035156 139.566406 188.273438 128.699219 C 187.992188 128.5 187.738281 128.265625 187.523438 128 C 186.460938 127 185.375 125.949219 184.261719 124.839844 C 178.613281 119.183594 171.558594 115.0625 164.023438 112.753906 C 163.996094 112.75 163.964844 112.746094 163.933594 112.742188 C 163.574219 112.6875 163.238281 112.582031 162.925781 112.429688 C 159.15625 111.371094 155.28125 110.761719 151.40625 110.640625 C 149.644531 110.585938 148.195312 109.230469 148.027344 107.472656 C 147.785156 104.964844 147.3125 101.597656 146.335938 98.273438 C 146.175781 97.949219 146.074219 97.613281 146.023438 97.273438 Z M 190.792969 170.675781 C 189.742188 170.957031 188.664062 171.230469 187.542969 171.496094 C 185.519531 171.972656 183.5625 172.488281 181.660156 173.039062 C 180.941406 176.308594 181.757812 181.785156 185.859375 185.058594 C 187.359375 186.253906 189.296875 187.125 191.746094 187.535156 C 191.640625 182.132812 191.277344 176.476562 190.792969 170.675781 Z M 161.375 104.832031 C 161.53125 101.722656 161.316406 98.179688 160.335938 94.546875 C 158.539062 95.277344 156.125 96.433594 153.550781 98.152344 C 154.039062 100.121094 154.394531 102.054688 154.644531 103.8125 C 156.902344 104.011719 159.152344 104.351562 161.375 104.832031 Z M 161.375 104.832031 " fill-opacity="1" fill-rule="evenodd"/></g><g fill="#747272" fill-opacity="1"><g transform="translate(97.118893, 311.509068)"><g><path d="M 12.8125 -33.75 C 12.71875 -33.625 12.640625 -33.203125 12.578125 -32.484375 C 12.515625 -31.765625 12.472656 -30.742188 12.453125 -29.421875 C 12.429688 -28.097656 12.421875 -26.425781 12.421875 -24.40625 L 12.484375 -1.015625 C 12.484375 1.929688 12.070312 4.4375 11.25 6.5 C 10.4375 8.5625 9.269531 10.128906 7.75 11.203125 C 6.238281 12.273438 4.429688 12.8125 2.328125 12.8125 C 0.398438 12.8125 -1.273438 12.367188 -2.703125 11.484375 C -4.140625 10.597656 -4.859375 9.546875 -4.859375 8.328125 C -4.859375 7.609375 -4.632812 7.039062 -4.1875 6.625 C -3.75 6.207031 -3.148438 6 -2.390625 6 C -1.847656 6 -1.300781 6.132812 -0.75 6.40625 C -0.207031 6.675781 0.335938 7.082031 0.890625 7.625 L 4.15625 10.90625 L 1.953125 10.15625 C 3.171875 10.363281 4.148438 10.210938 4.890625 9.703125 C 5.628906 9.203125 6.175781 8.289062 6.53125 6.96875 C 6.882812 5.644531 7.0625 3.890625 7.0625 1.703125 L 7.0625 -24.40625 C 7.0625 -26.257812 7.050781 -27.828125 7.03125 -29.109375 C 7.007812 -30.390625 6.988281 -31.429688 6.96875 -32.234375 C 6.945312 -33.035156 6.894531 -33.539062 6.8125 -33.75 L 2.515625 -34.625 L 2.65625 -37.03125 L 16.53125 -37.03125 L 16.65625 -34.625 Z M 12.8125 -33.75 "/></g></g></g><g fill="#747272" fill-opacity="1"><g transform="translate(132.819275, 311.509068)"><g><path d="M 2.90625 -37.03125 L 16.28125 -37.03125 L 16.46875 -34.625 L 12.546875 -33.6875 C 12.546875 -33.519531 12.523438 -33.140625 12.484375 -32.546875 C 12.441406 -31.960938 12.410156 -31.035156 12.390625 -29.765625 C 12.367188 -28.503906 12.359375 -26.71875 12.359375 -24.40625 L 12.359375 -14.703125 C 12.398438 -12.046875 12.832031 -9.90625 13.65625 -8.28125 C 14.476562 -6.664062 15.625 -5.476562 17.09375 -4.71875 C 18.5625 -3.96875 20.242188 -3.59375 22.140625 -3.59375 C 23.992188 -3.59375 25.601562 -3.96875 26.96875 -4.71875 C 28.332031 -5.476562 29.390625 -6.707031 30.140625 -8.40625 C 30.898438 -10.113281 31.28125 -12.359375 31.28125 -15.140625 L 31.28125 -23.28125 C 31.28125 -25.164062 31.257812 -26.832031 31.21875 -28.28125 C 31.175781 -29.738281 31.132812 -30.941406 31.09375 -31.890625 C 31.050781 -32.835938 30.988281 -33.4375 30.90625 -33.6875 L 26.5 -34.625 L 26.6875 -37.03125 L 38.921875 -37.03125 L 39.109375 -34.625 L 35.265625 -33.6875 C 35.265625 -33.5625 35.242188 -33.171875 35.203125 -32.515625 C 35.160156 -31.867188 35.128906 -30.804688 35.109375 -29.328125 C 35.085938 -27.859375 35.078125 -25.84375 35.078125 -23.28125 L 35.078125 -14.828125 C 35.078125 -11.296875 34.488281 -8.394531 33.3125 -6.125 C 32.132812 -3.851562 30.515625 -2.171875 28.453125 -1.078125 C 26.390625 0.015625 24.078125 0.5625 21.515625 0.5625 C 16.929688 0.5625 13.34375 -0.695312 10.75 -3.21875 C 8.164062 -5.738281 6.875 -9.3125 6.875 -13.9375 L 6.875 -24.40625 C 6.875 -26.71875 6.851562 -28.515625 6.8125 -29.796875 C 6.769531 -31.085938 6.738281 -32.023438 6.71875 -32.609375 C 6.695312 -33.203125 6.664062 -33.5625 6.625 -33.6875 L 2.78125 -34.625 Z M 2.90625 -37.03125 "/></g></g></g><g fill="#747272" fill-opacity="1"><g transform="translate(190.846789, 311.509068)"><g><path d="M 36.328125 0 L 22.703125 0 L 22.578125 -2.390625 L 26.4375 -3.34375 L 17.46875 -15.953125 L 15.453125 -18.609375 L 4.546875 -33.75 L 1.328125 -34.625 L 1.515625 -37.03125 L 15.203125 -37.03125 L 15.328125 -34.625 L 11.484375 -33.75 L 19.046875 -23.15625 L 20.9375 -20.5 L 33.3125 -3.34375 L 36.515625 -2.390625 Z M 26.625 -33.75 L 22.203125 -34.625 L 22.328125 -37.03125 L 34.0625 -37.03125 L 34.1875 -34.625 L 30.96875 -33.75 L 20.9375 -20.5 L 17.46875 -15.953125 L 8.515625 -3.34375 L 12.9375 -2.390625 L 12.8125 0 L 1.078125 0 L 0.953125 -2.390625 L 4.15625 -3.34375 L 15.453125 -18.609375 L 19.046875 -23.15625 Z M 26.625 -33.75 "/></g></g></g><g fill="#747272" fill-opacity="1"><g transform="translate(243.702481, 311.509068)"><g><path d="M 31.03125 -33.75 L 18.109375 -13.75 L 19.6875 -18.046875 L 19.6875 -12.046875 C 19.6875 -10.453125 19.695312 -9.117188 19.71875 -8.046875 C 19.738281 -6.972656 19.757812 -6.109375 19.78125 -5.453125 C 19.800781 -4.804688 19.832031 -4.3125 19.875 -3.96875 C 19.914062 -3.632812 19.9375 -3.40625 19.9375 -3.28125 L 24.34375 -2.453125 L 24.21875 0 L 9.84375 0 L 9.65625 -2.453125 L 14.0625 -3.28125 C 14.101562 -3.40625 14.144531 -3.632812 14.1875 -3.96875 C 14.226562 -4.3125 14.257812 -4.804688 14.28125 -5.453125 C 14.300781 -6.109375 14.320312 -6.972656 14.34375 -8.046875 C 14.363281 -9.117188 14.375 -10.453125 14.375 -12.046875 L 14.375 -18.046875 L 15.640625 -13.75 L 3.15625 -33.75 L 0 -34.625 L 0.125 -37.03125 L 13.1875 -37.03125 L 13.375 -34.625 L 9.53125 -33.75 L 18.796875 -18.859375 L 17.921875 -18.859375 L 26.8125 -33.75 L 22.390625 -34.625 L 22.578125 -37.03125 L 34.0625 -37.03125 L 34.1875 -34.625 Z M 31.03125 -33.75 "/></g></g></g></svg>